HIERARCHY
ROOT root
{
	OFFSET	0	13.1	24.9
	CHANNELS 6  Xposition Yposition Zposition Xrotation Yrotation Zrotation
	JOINT spine_1
	{
		OFFSET	0	9.99999	0
		CHANNELS 3  Xrotation Yrotation Zrotation
		JOINT spine_2
		{
			OFFSET	0	112	-10
			CHANNELS 3  Xrotation Yrotation Zrotation
			JOINT spine_3
			{
				OFFSET	0	206.5	19.3
				CHANNELS 3  Xrotation Yrotation Zrotation
				JOINT spine_4
				{
					OFFSET	0	110.4	14.6
					CHANNELS 3  Xrotation Yrotation Zrotation
					JOINT neck_1
					{
						OFFSET	0	71.8	-50.3
						CHANNELS 3  Xrotation Yrotation Zrotation
						JOINT neck_2
						{
							OFFSET	0	86.2	-25.8
							CHANNELS 3  Xrotation Yrotation Zrotation
							JOINT head_ee
							{
								OFFSET	0	179.8	-8.7
								CHANNELS 3  Xrotation Yrotation Zrotation
								End Site
								{
									OFFSET	1	0	0
								}
							}
						}
					}
					JOINT left_clavicle
					{
						OFFSET	-43.2	22.4	-70.8
						CHANNELS 3  Xrotation Yrotation Zrotation
						JOINT left_shoulder
						{
							OFFSET	-93.9	-5.79999	48.7
							CHANNELS 3  Xrotation Yrotation Zrotation
							JOINT left_elbow
							{
								OFFSET	-291.4	-30.8	15.2
								CHANNELS 3  Xrotation Yrotation Zrotation
								JOINT left_lowarm_twist
								{
									OFFSET	-110.7	-3.89999	13.6
									CHANNELS 3  Xrotation Yrotation Zrotation
									JOINT left_hand
									{
										OFFSET	-110.7	-3.89999	13.6
										CHANNELS 3  Xrotation Yrotation Zrotation
										JOINT left_ee
										{
											OFFSET	-80.8	-5.10001	12.1
											CHANNELS 3  Xrotation Yrotation Zrotation
											End Site
											{
												OFFSET	1	0	0
											}
										}
									}
								}
							}
						}
					}
					JOINT right_clavicle
					{
						OFFSET	43.2	22.4	-70.8
						CHANNELS 3  Xrotation Yrotation Zrotation
						JOINT right_shoulder
						{
							OFFSET	93.9	-5.79999	48.7
							CHANNELS 3  Xrotation Yrotation Zrotation
							JOINT right_elbow
							{
								OFFSET	291.4	-30.8	15.2
								CHANNELS 3  Xrotation Yrotation Zrotation
								JOINT right_lowarm_twist
								{
									OFFSET	110.7	-3.89999	13.6
									CHANNELS 3  Xrotation Yrotation Zrotation
									JOINT right_hand
									{
										OFFSET	110.7	-3.89999	13.6
										CHANNELS 3  Xrotation Yrotation Zrotation
										JOINT right_ee
										{
											OFFSET	80.8	-5.10001	12.1
											CHANNELS 3  Xrotation Yrotation Zrotation
											End Site
											{
												OFFSET	1	0	0
											}
										}
									}
								}
							}
						}
					}
				}
			}
		}
	}
	JOINT left_hip
	{
		OFFSET	-82.8	-127.5	0.300001
		CHANNELS 3  Xrotation Yrotation Zrotation
		JOINT left_knee
		{
			OFFSET	-28.2	-396.7	2.2
			CHANNELS 3  Xrotation Yrotation Zrotation
			JOINT left_ankle
			{
				OFFSET	-11.7	-411.3	35.4
				CHANNELS 3  Xrotation Yrotation Zrotation
				JOINT left_toes
				{
					OFFSET	0	-60	-88.6
					CHANNELS 3  Xrotation Yrotation Zrotation
					JOINT left_foot_ee
					{
						OFFSET	-22.5	-16.5	-42.2
						CHANNELS 3  Xrotation Yrotation Zrotation
						End Site
						{
							OFFSET	1	0	0
						}
					}
				}
			}
		}
	}
	JOINT right_hip
	{
		OFFSET	82.8	-127.5	0.300001
		CHANNELS 3  Xrotation Yrotation Zrotation
		JOINT right_knee
		{
			OFFSET	28.2	-396.7	2.2
			CHANNELS 3  Xrotation Yrotation Zrotation
			JOINT right_ankle
			{
				OFFSET	11.7	-411.3	35.4
				CHANNELS 3  Xrotation Yrotation Zrotation
				JOINT right_toes
				{
					OFFSET	0	-60	-88.6
					CHANNELS 3  Xrotation Yrotation Zrotation
					JOINT right_foot_ee
					{
						OFFSET	22.5	-16.5	-42.2
						CHANNELS 3  Xrotation Yrotation Zrotation
						End Site
						{
							OFFSET	1	0	0
						}
					}
				}
			}
		}
	}
}
MOTION
Frames: 12
Frame Time: 0.02
660.446 699.503 -580.145 175.659 -73.9682 168.858 -0.955254 1.50769 4.69817 -0.943785 1.20603 4.78432 -0.831579 0.103738 4.93256 -0.864437 0.880513 4.85463 -12.093 6.5874 -10.2282 -11.9768 19.0516 -8.00374 -0.0 0.0 -0.0 -2.5347 23.5923 -0.732068 -18.1981 -4.33601 68.7089 0.421208 -11.7861 0.0434762 -53.7729 -4.52006 4.86553 0.544073 19.2016 11.0756 -0.0 0.0 -0.0 13.8908 27.7021 -27.5271 2.16594 25.2168 -48.3209 2.62548 52.4349 -1.29306 3.82895 -0.119083 0.474485 -3.21709 -0.237367 21.9174 0.0 0.0 0.0 24.9816 31.9755 -0.904204 6.81207 -0.339823 -0.989113 -7.89695 1.96152 1.18178 -8.05258 0.0 0.0 -0.0 0.0 -0.0 -19.1991 17.938 13.7005 -18.3957 -0.311282 -2.7937 32.4885 1.87391 4.18605 12.6293 -0.0 -0.0 0.0 0.0 0.0 
679.78 694.384 -585.978 176.044 -73.4064 169.508 -0.905165 1.50869 4.7131 -0.893618 1.20608 4.79928 -0.781216 0.104797 4.94705 -0.814265 0.88384 4.86878 -11.954 6.7574 -9.92132 -11.8527 19.192 -7.68013 -0.0 0.0 -0.0 -2.33258 23.3418 -0.500095 -17.8352 -4.43779 68.6267 0.42509 -11.8916 0.0442726 -53.6896 -4.51004 4.86182 0.577871 18.6224 11.0766 -0.0 0.0 -0.0 13.9199 27.8753 -27.5709 1.78541 24.5257 -48.295 2.61326 52.3058 -1.28339 3.78881 -0.118 0.469471 -3.25077 -0.335981 22.1098 0.0 0.0 0.0 24.7495 31.8306 -0.63698 5.82404 -0.283258 -0.848205 -8.49625 2.30976 1.27177 -8.19863 0.0 0.0 -0.0 0.0 -0.0 -19.6449 17.9458 13.6421 -18.638 -0.309361 -2.83083 33.6337 1.90057 4.30171 12.4787 -0.0 -0.0 0.0 0.0 0.0 
698.591 700.2 -588.036 176.507 -72.2718 170.356 -0.828861 1.4999 4.67275 -0.817518 1.19987 4.75846 -0.706953 0.114205 4.90574 -0.739427 0.886629 4.82649 -11.4263 7.25226 -9.0932 -11.356 19.6458 -6.82733 -0.0 0.0 -0.0 -2.17538 23.0337 -0.337364 -17.2072 -4.62645 68.4178 0.42952 -12.012 0.0451902 -53.2901 -4.46204 4.84382 0.675738 17.2184 11.1806 -0.0 0.0 -0.0 13.8949 27.8992 -27.5096 0.459009 23.9693 -49.0294 2.42324 50.1962 -1.13516 3.35104 -0.105957 0.414847 -3.23252 -0.673585 21.8039 0.0 0.0 0.0 24.7496 31.9087 -0.0759114 1.37763 -0.0591764 -0.203113 -10.378 6.06509 1.5496 -7.58986 0.0 0.0 -0.0 0.0 -0.0 -19.9019 17.7352 13.2702 -16.9028 -0.319654 -2.56481 32.0671 2.17769 4.14595 11.2381 -0.0 -0.0 0.0 0.0 0.0 
722.13 697.864 -593.969 177.554 -71.9965 171.555 -0.586829 1.49302 4.6718 -0.57548 1.19306 4.75707 -0.466412 0.128484 4.90239 -0.498807 0.900202 4.82093 -11.0795 7.65433 -8.38661 -11.0355 19.9723 -6.08899 -0.0 0.0 -0.0 -2.05298 22.7635 -0.213891 -16.6609 -4.80537 68.1766 0.434896 -12.1579 0.0463156 -53.0103 -4.4285 4.83101 0.745254 16.2118 11.2545 -0.0 0.0 -0.0 13.9623 27.8763 -27.6695 -0.189359 23.6656 -49.46 2.30951 48.8372 -1.04866 3.02464 -0.096706 0.37418 -3.22593 -0.906972 21.6359 0.0 0.0 0.0 26.468 31.8764 -0.802812 -1.71086 0.0666536 0.254086 -12.0631 8.90238 1.80302 -7.26373 0.0 0.0 -0.0 0.0 -0.0 -22.0015 16.9963 14.3706 -16.2205 -0.321494 -2.46015 30.9725 2.28879 4.03332 10.369 -0.0 -0.0 0.0 0.0 0.0 
752.245 695.519 -602.315 178.779 -71.9766 172.375 -0.380136 1.46105 4.60443 -0.369099 1.16543 4.68782 -0.264769 0.133547 4.82836 -0.296176 0.893552 4.74702 -10.7772 8.00659 -7.6428 -10.7581 20.1679 -5.3212 -0.0 0.0 -0.0 -1.97386 22.6201 -0.127818 -16.2411 -4.96888 68.0585 0.439881 -12.293 0.0473712 -52.8216 -4.40593 4.82228 0.799149 15.2591 11.2513 -0.0 0.0 -0.0 14.0133 27.8044 -27.7983 -0.994283 23.2543 -49.8967 2.21752 47.6809 -0.980014 2.78958 -0.0899003 0.344927 -3.22114 -1.07055 21.5169 0.0 0.0 0.0 27.2417 31.8474 -1.59542 -3.97426 0.143109 0.593017 -13.6044 11.2924 2.03873 -7.04222 0.0 0.0 -0.0 0.0 -0.0 -23.2307 16.5292 15.0039 -15.6908 -0.322063 -2.37888 29.8497 2.35086 3.91476 9.52325 -0.0 -0.0 0.0 0.0 0.0 
779.54 706.708 -609.139 179.306 -71.7054 173.353 -0.238584 1.43252 4.53457 -0.227871 1.14139 4.6163 -0.127696 0.136714 4.75305 -0.158119 0.884826 4.67215 -10.12 8.36288 -6.77134 -10.1084 20.2941 -4.49701 -0.0 0.0 -0.0 -1.73606 22.6847 0.21431 -15.5271 -5.18697 68.0639 0.478351 -13.3312 0.0559025 -52.6708 -4.3879 4.81525 0.846011 14.4053 11.2399 -0.0 0.0 -0.0 14.0386 27.7507 -27.8647 -2.9656 22.5347 -51.1764 2.12991 46.5298 -0.915822 2.62707 -0.085125 0.324717 -3.22201 -1.21744 21.447 0.0 0.0 0.0 27.6955 31.6802 -1.86398 -6.67473 0.216714 1.00087 -14.2007 12.9689 2.133 -6.71071 0.0 0.0 -0.0 0.0 -0.0 -23.9627 16.1466 15.3923 -15.3247 -0.322018 -2.32271 29.0943 2.38725 3.83354 8.90291 -0.0 -0.0 0.0 0.0 0.0 
796.906 697.959 -618.728 -179.926 -71.4307 173.964 0.0464455 1.20605 4.45115 0.0569938 0.920668 4.51868 0.136227 -0.0377184 4.61118 0.10723 0.690235 4.55949 -9.70964 8.9685 -6.24106 -9.70825 21.0896 -3.89934 -0.0 0.0 -0.0 -1.58009 22.5469 0.410027 -14.8574 -5.40417 67.8007 0.47983 -13.3709 0.0562439 -52.5308 -4.37117 4.80867 1.02618 13.3145 11.9985 -0.0 0.0 -0.0 13.6819 27.5646 -27.0601 -4.09679 22.1269 -51.9461 2.15403 46.8518 -0.933379 1.67815 -0.0560977 0.206986 -3.18415 -0.716503 21.434 0.0 0.0 0.0 27.6347 31.5821 -1.90817 -11.8511 0.303732 1.79014 -13.7562 14.0998 2.06881 -5.98787 0.0 0.0 -0.0 0.0 -0.0 -24.1761 15.9511 15.5451 -14.8355 -0.321396 -2.24765 28.591 2.00505 3.77482 7.74289 -0.0 -0.0 0.0 0.0 0.0 
826.08 691.576 -621.163 178.028 -71.7327 172.374 -0.0139416 0.803875 4.19095 -0.00433228 0.53581 4.2335 0.0407139 -0.363083 4.25177 0.0156309 0.312336 4.25579 -8.45186 9.04708 -6.31733 -8.37886 21.3214 -4.21099 -0.0 0.0 -0.0 -1.2129 22.2826 0.884178 -14.1047 -5.69674 67.7274 0.488665 -13.608 0.0583048 -52.2024 -4.33203 4.7931 1.20486 12.1105 12.7208 -0.0 0.0 -0.0 13.4646 27.424 -26.5748 -5.22267 22.546 -52.7023 2.16599 47.0099 -0.942111 0.640222 -0.0221176 0.0787746 -3.12937 0.0637072 21.4395 0.0 0.0 0.0 27.5838 31.5185 -1.91295 -16.7393 0.320208 2.53973 -13.569 14.8555 2.043 -5.46497 0.0 0.0 -0.0 0.0 -0.0 -24.4768 16.5591 17.476 -15.2104 -0.32193 -2.30516 26.9184 0.22232 3.57401 7.02045 -0.0 -0.0 0.0 0.0 0.0 
850.718 699.725 -631.936 179.749 -72.5816 174.442 -0.00201607 0.457333 4.01761 0.00693898 0.200968 4.03852 0.0254984 -0.651433 3.99078 0.00328001 -0.0135255 4.04349 -7.51618 9.67848 -5.06303 -7.43957 21.624 -3.00485 -0.0 0.0 -0.0 -0.866986 21.4663 1.25893 -12.5835 -6.37586 67.5461 0.519521 -14.4324 0.0657803 -51.974 -4.30484 4.78214 1.33227 11.1543 13.2088 -0.0 0.0 -0.0 13.073 27.3893 -25.6747 -6.79054 21.8486 -53.4451 2.13247 46.5643 -0.917686 0.0544609 -0.00191559 0.00669153 -3.00466 0.178193 20.603 0.0 0.0 0.0 27.0342 30.7997 -1.38829 -20.2852 0.292139 3.08298 -13.3106 15.3816 2.00565 -4.47782 0.0 0.0 -0.0 0.0 -0.0 -22.6405 17.414 18.2806 -16.9634 -0.31943 -2.5741 25.4896 -1.31087 3.40169 6.22284 -0.0 -0.0 0.0 0.0 0.0 
867.208 711.831 -640.623 -178.253 -73.9117 176.299 -0.0104501 0.297097 3.90084 -0.00198775 0.0484681 3.91182 0.00519714 -0.775559 3.83459 -0.0152818 -0.160708 3.90882 -7.77895 9.64271 -4.38636 -7.73829 21.0825 -2.28165 -0.0 0.0 -0.0 -0.582959 20.0539 1.48356 -10.7298 -7.29817 67.5512 0.596698 -16.4671 0.0863432 -52.3955 -4.35503 4.80229 1.63799 10.5034 14.9935 -0.0 0.0 -0.0 12.017 27.1756 -23.2819 -9.43337 21.0908 -54.2886 2.07282 45.7524 -0.874657 0.247639 -0.00865965 0.0304412 -2.72801 1.72016 19.3924 0.0 0.0 0.0 26.8514 27.4316 0.340739 -22.4498 0.2585 3.4134 -11.2174 16.9877 1.69261 -3.45336 0.0 0.0 -0.0 0.0 -0.0 -20.3797 18.6779 17.703 -22.9682 -0.248593 -3.49233 25.1079 -3.86705 3.34711 7.19085 -0.0 -0.0 0.0 0.0 0.0 
882.233 716.668 -642.122 -178.618 -75.7367 176.272 -0.121044 0.382428 3.65979 -0.113606 0.148932 3.67668 -0.100229 -0.634232 3.6247 -0.118556 -0.0542237 3.67929 -8.89424 10.1186 -3.93611 -8.93149 21.6785 -1.50156 -0.0 0.0 -0.0 -0.347676 18.7272 1.6668 -8.27982 -9.64408 67.2742 0.721139 -19.6583 0.124942 -52.7112 -4.39272 4.81713 1.77383 9.32507 15.48 -0.0 0.0 -0.0 11.4738 27.2605 -22.0384 -11.2359 20.658 -55.2214 1.88059 42.9672 -0.740219 0.431547 -0.0150051 0.0530721 -2.48864 2.68138 18.1567 0.0 0.0 0.0 26.0194 23.4845 1.84841 -21.8586 0.268927 3.32328 -9.19723 18.115 1.38844 -2.80361 0.0 0.0 -0.0 0.0 -0.0 -18.0435 20.0284 16.5544 -29.5431 -0.0612956 -4.48344 22.449 -7.33508 3.02972 8.21318 -0.0 -0.0 0.0 0.0 0.0 
897.475 720.126 -649.71 -178.581 -77.0834 176.37 -0.0826218 0.508765 3.48979 -0.0758928 0.28581 3.51505 -0.0546995 -0.463086 3.49614 -0.0717414 0.0945202 3.52537 -9.03029 10.3635 -3.40772 -9.08972 21.778 -0.89273 -0.0 0.0 -0.0 -0.239132 17.7668 1.71516 -6.66111 -11.2795 66.9625 0.809554 -21.8521 0.15628 -52.9318 -4.41911 4.82738 1.82107 7.92215 15.2913 -0.0 0.0 -0.0 11.109 27.4422 -21.1923 -12.8209 20.6469 -55.9784 1.76013 41.0821 -0.65957 0.38663 -0.0134622 0.047543 -2.28982 3.36559 17.0767 0.0 0.0 0.0 24.2921 19.5579 4.02046 -21.4449 0.27567 3.26016 -7.57989 18.9056 1.14434 -1.86129 0.0 0.0 -0.0 0.0 -0.0 -12.9127 21.0789 14.3386 -39.4028 0.429213 -5.91452 19.8346 -10.7245 2.71548 8.7717 -0.0 -0.0 0.0 0.0 0.0 
